# xmcd
#
# Track frame offsets:
#	150
#	9728
#	21371
#	34233
#	44695
#	56085
#	66041
#	76869
#	86712
#	96705
#	108292
#	118360
#	128728
#	142612
#	155915
#	169808
#	179820
#	191292
#	202410
#	212553
#
# Disc length: 2963 seconds
#
# Revision: 0
# Processed by: cddbd v1.5.2PL0 Copyright (c) Steve Scherf et al.
# Submitted via: EZCDAudioConverter 1.2.5.1
#
DISCID=2e0b9114
DTITLE=Solomon Burke - Keep the magic working
DYEAR=1961
DGENRE=Soul
TTITLE0=Keep the magic working
TTITLE1=Your are my one live
TTITLE2=Why do me that way
TTITLE3=How many times
TTITLE4=Cry to me
TTITLE5=A picture of you
TTITLE6=Walking in a dream
TTITLE7=For you and you alone
TTITLE8=They always say
TTITLE9=I'm in love
TTITLE10=Don't cry
TTITLE11=Leave my kitten alone
TTITLE12=To thee
TTITLE13=This is it
TTITLE14=Christmas presents from Heaven
TTITLE15=I'm all alone
TTITLE16=Mama, mama dear
TTITLE17=No man walks alone
TTITLE18=Be Bop Grandma
TTITLE19=Friendship ring
EXTD=
EXTT0=
EXTT1=
EXTT2=
EXTT3=
EXTT4=
EXTT5=
EXTT6=
EXTT7=
EXTT8=
EXTT9=
EXTT10=
EXTT11=
EXTT12=
EXTT13=
EXTT14=
EXTT15=
EXTT16=
EXTT17=
EXTT18=
EXTT19=
PLAYORDER=
